<?xml version="1.0" encoding="UTF-8" standalone="no"?>
<!-- Created with Inkscape (http://www.inkscape.org/) -->

<svg
   width="168.96896mm"
   height="180.56526mm"
   viewBox="0 0 168.96896 180.56526"
   version="1.1"
   id="svg1"
   xml:space="preserve"
   inkscape:version="1.4 (86a8ad7, 2024-10-11)"
   sodipodi:docname="icon.svg"
   xmlns:inkscape="http://www.inkscape.org/namespaces/inkscape"
   xmlns:sodipodi="http://sodipodi.sourceforge.net/DTD/sodipodi-0.dtd"
   xmlns="http://www.w3.org/2000/svg"
   xmlns:svg="http://www.w3.org/2000/svg"><sodipodi:namedview
     id="namedview1"
     pagecolor="#ffffff"
     bordercolor="#000000"
     borderopacity="0.25"
     inkscape:showpageshadow="2"
     inkscape:pageopacity="0.0"
     inkscape:pagecheckerboard="0"
     inkscape:deskcolor="#d1d1d1"
     inkscape:document-units="mm"
     inkscape:zoom="0.12616705"
     inkscape:cx="-277.40998"
     inkscape:cy="-273.44698"
     inkscape:window-width="2560"
     inkscape:window-height="1351"
     inkscape:window-x="-9"
     inkscape:window-y="-9"
     inkscape:window-maximized="1"
     inkscape:current-layer="layer1"
     showguides="true"><sodipodi:guide
       position="290.07337,1310.7789"
       orientation="0,-1"
       id="guide14"
       inkscape:locked="false" /><inkscape:page
       x="0"
       y="-1.5971037e-13"
       width="168.96896"
       height="180.56528"
       id="page2"
       margin="0"
       bleed="0" /></sodipodi:namedview><defs
     id="defs1" /><g
     inkscape:label="طبقة 1"
     inkscape:groupmode="layer"
     id="layer1"
     transform="translate(-169.18876,-306.5825)"><path
       d="m 253.70608,306.58252 c 0.68715,0 1.69659,0.2049 2.24379,0.45527 0.54721,0.25037 7.32155,3.98488 15.05386,8.29871 7.73234,4.31381 24.85142,13.84837 38.04213,21.18786 18.49215,10.28929 24.29755,13.64417 25.35659,14.65388 0.75543,0.72026 1.76747,2.00769 2.24896,2.86081 0.48148,0.85311 1.03204,2.20445 1.2237,3.00292 0.26089,1.08697 0.32536,11.4697 0.25735,41.32254 -0.0908,39.87077 -0.0907,39.87078 -1.19114,41.85636 -0.72523,1.3086 -1.63308,2.43266 -2.66341,3.29747 -0.99967,0.83907 -10.52754,6.29776 -26.42526,15.13965 -13.674,7.60513 -30.52221,16.97805 -37.4401,20.82818 -6.9179,3.85012 -13.04443,7.14886 -13.61467,7.33082 -0.57025,0.18196 -1.43608,0.33073 -1.92443,0.33073 -0.48835,0 -1.37426,-0.15488 -1.96836,-0.34416 -0.59412,-0.18927 -5.92176,-3.00412 -11.83907,-6.25543 -9.49531,-5.21725 -11.03871,-6.15968 -13.14286,-8.02484 -1.77723,-1.5754 -2.70244,-2.66532 -3.63492,-4.28139 -0.68799,-1.19236 -1.54092,-3.09256 -1.8955,-4.223 -0.63331,-2.01899 -0.64638,-2.42807 -0.74672,-23.12624 -0.0734,-15.13754 -0.006,-21.48088 0.23668,-22.52782 0.24149,-1.03746 0.64543,-1.75951 1.40198,-2.50631 0.58449,-0.57697 1.5716,-1.28043 2.19315,-1.56321 0.62155,-0.28279 1.12964,-0.57449 1.12964,-0.64854 0,-0.074 -2.80894,-5.03079 -6.24251,-11.01483 -3.43355,-5.98405 -6.33659,-10.96834 -6.45077,-11.07633 -0.11416,-0.108 -2.20578,1.37637 -4.64829,3.29903 -2.44253,1.92268 -5.1541,4.04239 -6.02599,4.71031 -1.58524,1.21439 -1.58528,1.21465 1.29708,2.72748 2.63117,1.381 2.94399,1.63164 3.59409,2.87682 0.71215,1.36406 0.71255,1.36419 0.71107,19.31304 -0.001,15.08266 -0.0729,18.21854 -0.44855,19.63963 -0.24584,0.93012 -0.87308,2.41498 -1.39371,3.29954 -0.52064,0.88456 -1.83628,2.41098 -2.92386,3.39204 -1.38622,1.25044 -2.57945,2.03477 -3.99045,2.62361 -1.59737,0.66664 -2.50366,0.8624 -4.39353,0.94929 -1.8255,0.0839 -2.77723,-0.01 -4.07676,-0.40307 -0.93233,-0.28192 -5.10645,-2.33972 -9.27591,-4.57337 -4.9793,-2.66748 -8.03578,-4.47993 -8.90695,-5.28081 -0.72948,-0.67063 -1.71843,-1.74296 -2.1978,-2.3828 -0.47937,-0.63985 -1.13596,-1.91802 -1.45883,-2.84065 -0.57445,-1.64147 -0.58704,-2.52712 -0.58704,-41.21506 0,-38.69377 0.0125,-39.5733 0.58756,-41.23366 0.32316,-0.9331 1.10501,-2.41046 1.73736,-3.283 0.63238,-0.87255 1.79973,-2.08031 2.59416,-2.68356 0.79439,-0.60327 4.37429,-2.74153 7.95558,-4.75165 3.58129,-2.01012 11.43943,-6.42408 17.4625,-9.80922 6.02306,-3.38514 13.94812,-7.84055 17.61081,-9.90068 3.66267,-2.06011 12.64089,-7.10418 19.95176,-11.20914 7.31088,-4.10494 13.75963,-7.6375 14.33039,-7.85017 0.57076,-0.21268 1.60005,-0.38705 2.2872,-0.38705 z"
       style="fill-opacity:0;stroke:none;stroke-width:0.462;stroke-linecap:round;stroke-linejoin:round;stroke-opacity:1"
       id="path13"
       sodipodi:nodetypes="sssssssssssssssssssscssssssssscssssssssssssssssssss" /><g
       id="g14"
       transform="translate(-331.3398,1167.0292)"
       style="stroke:none;stroke-opacity:1"><path
         d="m 585.04589,-860.4466 c -0.68715,0 -1.71644,0.17437 -2.2872,0.38705 -0.57076,0.21267 -7.01951,3.74523 -14.33039,7.85017 -7.31087,4.10496 -16.28909,9.14903 -19.95176,11.20914 -3.66269,2.06013 -11.58775,6.51554 -17.61081,9.90068 -6.02307,3.38514 -13.88121,7.7991 -17.4625,9.80922 -3.58129,2.01012 -7.16119,4.14838 -7.95558,4.75165 -0.79443,0.60325 -1.96178,1.81101 -2.59416,2.68356 -0.63235,0.87254 -1.4142,2.3499 -1.73736,3.283 -0.57508,1.66036 -0.58756,2.53989 -0.58756,41.23366 0,38.68794 0.0126,39.57359 0.58704,41.21506 0.32287,0.92263 0.97946,2.2008 1.45883,2.84065 0.47937,0.63984 1.46832,1.71217 2.1978,2.3828 0.87117,0.80088 3.92765,2.61333 8.90695,5.28081 4.16946,2.23365 8.34358,4.29145 9.27591,4.57337 1.29953,0.39309 2.25126,0.48697 4.07676,0.40307 1.88987,-0.0869 2.79616,-0.28265 4.39353,-0.94929 1.411,-0.58884 2.60423,-1.37317 3.99045,-2.62361 1.08758,-0.98106 2.40322,-2.50748 2.92386,-3.39204 0.52063,-0.88456 1.14787,-2.36942 1.39371,-3.29954 0.37567,-1.42109 0.44755,-4.55697 0.44855,-19.63963 10e-4,-17.94885 10e-4,-17.94898 -0.71107,-19.31304 -0.6501,-1.24518 -0.96292,-1.49582 -3.59409,-2.87682 -2.88236,-1.51283 -2.88232,-1.51309 -1.29708,-2.72748 0.87189,-0.66792 3.58346,-2.78763 6.02599,-4.71031 2.44251,-1.92266 4.53413,-3.40703 4.64829,-3.29903 0.11418,0.10799 3.01722,5.09228 6.45077,11.07633 3.43357,5.98404 6.24251,10.94083 6.24251,11.01483 0,0.074 -0.50809,0.36575 -1.12964,0.64854 -0.62155,0.28278 -1.60866,0.98624 -2.19315,1.56321 -0.75655,0.7468 -1.16049,1.46885 -1.40198,2.50631 -0.24308,1.04694 -0.31008,7.39028 -0.23668,22.52782 0.10034,20.69817 0.11341,21.10725 0.74672,23.12624 0.35458,1.13044 1.20751,3.03064 1.8955,4.223 0.93248,1.61607 1.85769,2.70599 3.63492,4.28139 2.10415,1.86516 3.64755,2.80759 13.14286,8.02484 5.91731,3.25131 11.24495,6.06616 11.83907,6.25543 0.5941,0.18928 1.48001,0.34416 1.96836,0.34416 0.48835,0 1.35418,-0.14877 1.92443,-0.33073 0.57024,-0.18196 6.69677,-3.4807 13.61467,-7.33082 6.91789,-3.85013 23.76609,-13.22305 37.44009,-20.82818 15.89772,-8.84189 25.42559,-14.30058 26.42526,-15.13965 1.03033,-0.86481 1.93818,-1.98887 2.66341,-3.29747 1.10044,-1.98558 1.10034,-1.98559 1.19114,-41.85636 0.068,-29.85284 0.004,-40.23557 -0.25735,-41.32254 -0.19166,-0.79847 -0.74222,-2.14981 -1.2237,-3.00292 -0.48149,-0.85312 -1.49353,-2.14055 -2.24896,-2.86081 -1.05904,-1.00971 -6.86444,-4.36459 -25.35659,-14.65388 -13.19071,-7.33949 -30.30979,-16.87405 -38.04212,-21.18786 -7.73231,-4.31383 -14.50665,-8.04834 -15.05386,-8.29871 -0.5472,-0.25037 -1.55664,-0.45527 -2.24379,-0.45527 z m 5.03018,13.24208 c 0.09,0 5.11832,2.75652 11.17348,6.12573 6.05515,3.36923 13.60657,7.56408 16.78089,9.32191 3.17432,1.75781 11.83135,6.55532 19.2381,10.66136 7.40673,4.10605 14.3156,7.95239 15.35307,8.54729 1.88628,1.0816 1.88641,1.08159 0.42891,1.52342 -0.80162,0.24299 -1.90528,0.64833 -2.45256,0.90072 -0.5473,0.2524 -3.60391,1.89451 -6.79235,3.64887 -3.18844,1.75434 -6.55015,3.69901 -7.47035,4.3217 -0.92021,0.62267 -2.13548,1.69808 -2.70061,2.39003 -0.56511,0.69195 -1.33088,1.79256 -1.7017,2.44585 -0.37085,0.65328 -0.86858,1.78199 -1.10588,2.50786 -0.35635,1.09001 -0.45709,5.04593 -0.58032,22.72626 -0.13336,19.13326 -0.0989,21.56219 0.32608,22.86579 0.34653,1.06309 0.79495,1.71586 1.65416,2.40812 0.64833,0.52236 1.51543,1.02534 1.9265,1.11724 0.41107,0.092 0.74507,0.30247 0.74207,0.46819 -0.003,0.16574 -2.58194,4.80967 -5.73143,10.31978 -3.1495,5.5101 -5.84769,10.05471 -5.9955,10.09861 -0.14784,0.044 -1.13108,-0.55067 -2.1854,-1.32136 -1.05431,-0.77069 -3.41557,-2.4857 -5.24671,-3.81062 -3.32935,-2.40891 -3.32893,-2.40883 -1.62832,-3.10317 0.93535,-0.38189 2.01363,-0.95454 2.39623,-1.27279 0.38259,-0.31826 0.98231,-1.05383 1.33274,-1.63453 0.6311,-1.0458 0.63768,-1.21984 0.72088,-18.38441 0.0699,-14.40426 0.0112,-17.64159 -0.34881,-19.18125 -0.23817,-1.01875 -0.80352,-2.52665 -1.25626,-3.35122 -0.45274,-0.82458 -1.36016,-2.04348 -2.01641,-2.70836 -0.65623,-0.66488 -1.96844,-1.65569 -2.9161,-2.20194 -0.94763,-0.54623 -2.40394,-1.19478 -3.23598,-1.44125 -0.84852,-0.25133 -2.38852,-0.44318 -3.50728,-0.43718 -1.09704,0.006 -2.71458,0.19817 -3.59461,0.42633 -0.93824,0.24325 -3.65063,1.56366 -6.55774,3.19257 -2.72681,1.52788 -5.01506,2.77812 -5.08496,2.77812 -0.0699,0 -0.12713,-15.73846 -0.12713,-34.97409 0,-19.23561 0.0732,-34.97358 0.1633,-34.97358 z m -10.77195,0.063 c 0.54528,0.16304 0.5457,4.02039 0.5457,34.88004 0,19.3975 -0.10012,35.25841 -0.22221,35.24591 -0.12208,-0.0125 -3.75132,-1.98374 -8.06514,-4.38061 -4.31383,-2.39689 -15.16882,-8.42958 -24.12204,-13.4059 -8.9532,-4.97632 -18.36201,-10.18298 -20.90828,-11.57035 -2.54626,-1.38736 -5.42797,-2.88196 -6.40375,-3.32125 -0.97579,-0.43929 -2.38879,-0.93671 -3.13986,-1.10536 -0.75105,-0.16866 -1.35992,-0.38165 -1.35392,-0.47335 0.006,-0.0917 2.76966,-1.70414 6.14123,-3.58325 3.37156,-1.87912 17.45123,-9.78522 31.28801,-17.56895 13.83678,-7.78371 25.52389,-14.36655 25.97154,-14.62857 0.10175,-0.0595 0.19082,-0.11165 0.26872,-0.0884 z m -65.96135,45.41898 c 0.31479,-0.0237 0.63078,0.0274 1.06505,0.14418 0.58704,0.15781 5.12951,2.56276 10.09448,5.34437 4.96496,2.78162 10.98667,6.14049 13.38161,7.46415 2.39494,1.32365 4.36062,2.48008 4.36562,2.57038 0.006,0.0903 -4.15061,3.34028 -9.23767,7.22179 -5.08705,3.88149 -10.2318,7.83755 -11.43238,8.79119 -1.2006,0.95363 -2.36571,2.12479 -2.58951,2.60243 -0.22378,0.47767 -0.40349,1.49556 -0.40049,2.26239 0.004,0.77728 0.24694,1.86613 0.54984,2.46083 0.29883,0.5867 0.93645,1.36179 1.41696,1.72238 0.48052,0.36058 2.7636,1.58339 5.0736,2.71714 4.20002,2.06137 4.20026,2.06164 4.20026,18.01234 0,15.9507 -1.2e-4,15.95059 -0.96222,16.88683 -0.70396,0.68506 -1.27947,0.97223 -2.1456,1.07073 -1.09982,0.12501 -1.67605,-0.12385 -8.12561,-3.51348 -5.57218,-2.92849 -7.06112,-3.83075 -7.54734,-4.57233 -0.60072,-0.9161 -0.60639,-1.2077 -0.68419,-34.79374 -0.0706,-30.52381 -0.0319,-33.95738 0.39274,-34.7555 0.2825,-0.53091 0.89421,-1.06441 1.52704,-1.33222 0.4295,-0.18176 0.74302,-0.28016 1.05781,-0.30386 z m 41.80365,22.61774 c 0.0912,0 4.72117,2.51874 10.28878,5.59708 5.56761,3.07833 11.0785,6.01821 12.2468,6.53293 2.12421,0.93589 2.12452,0.93598 2.14612,37.16362 0.0119,19.92521 -0.0784,36.21636 -0.20051,36.20296 -0.12208,-0.0134 -2.65619,-1.41136 -5.63118,-3.10679 -2.97501,-1.69543 -6.03826,-3.49718 -6.80733,-4.00389 -0.76909,-0.50671 -1.82765,-1.49257 -2.35231,-2.19108 -0.52467,-0.69852 -1.08999,-1.70683 -1.25626,-2.24069 -0.19207,-0.61669 -0.30286,-7.53132 -0.30386,-18.96163 -0.002,-17.99061 -0.002,-17.99058 2.03916,-17.05684 1.78147,0.81521 2.21057,0.91127 3.37912,0.75499 0.73623,-0.0985 1.85995,-0.51603 2.497,-0.92759 0.63704,-0.41154 1.40311,-1.20709 1.70223,-1.76837 0.29912,-0.56127 0.60344,-1.57192 0.67644,-2.24585 0.12703,-1.17274 -0.2392,-1.88074 -8.52971,-16.49719 -4.76423,-8.39949 -8.9766,-15.71713 -9.36119,-16.26154 -0.38458,-0.5444 -0.6244,-0.99012 -0.5333,-0.99012 z m 50.0631,5.0152 c 0.87188,0 1.48174,0.18197 2.03605,0.6072 0.56222,0.43129 0.85838,0.98698 1.02371,1.91978 0.12798,0.72207 0.2338,7.74502 0.23461,15.6068 0.001,12.99065 -0.0437,14.32814 -0.48989,14.66525 -0.27005,0.20402 -2.06114,1.12293 -3.98064,2.04225 -1.91951,0.91932 -3.87689,2.06441 -4.34961,2.54455 -0.47271,0.48014 -0.99919,1.3218 -1.16995,1.87017 -0.17075,0.54837 -0.31124,1.41698 -0.31213,1.93063 -9.1e-4,0.51364 0.29778,1.46426 0.66405,2.11202 0.54407,0.96221 2.85955,2.8108 12.65297,10.10326 6.59282,4.90919 12.18588,9.02821 12.4287,9.15293 0.24287,0.12473 0.37559,0.27838 0.29559,0.34158 -0.08,0.0632 -5.40645,3.02616 -11.83649,6.58409 -6.43004,3.55793 -14.0675,7.7912 -16.97261,9.40718 -2.9051,1.61598 -5.33583,2.93781 -5.40173,2.93781 -0.0657,0 -0.11938,-16.62602 -0.11938,-36.9471 0,-36.94743 -3.5e-4,-36.94739 0.6656,-37.31194 0.36628,-0.20051 2.66384,-1.46915 5.10563,-2.81895 2.44178,-1.34982 5.30396,-2.97015 6.36033,-3.60081 1.50674,-0.8995 2.18887,-1.1467 3.16519,-1.1467 z"
         style="fill:#224d61;fill-opacity:1;stroke:none;stroke-width:0.462;stroke-linecap:round;stroke-linejoin:round;stroke-opacity:1"
         id="path10" /><path
         d="m 656.45238,-801.8047 c 0.47448,0 1.22981,0.25733 1.67845,0.57205 0.44865,0.31473 0.99925,0.96426 1.2237,1.44333 0.33953,0.72465 0.40812,6.47303 0.40773,34.20359 -4.3e-4,31.20796 -0.0338,33.39145 -0.51832,34.25011 -0.28464,0.50441 -1.05004,1.23776 -1.70118,1.62987 -0.65115,0.39211 -7.41259,4.1662 -15.02544,8.38709 -7.61282,4.22088 -13.90878,7.67447 -13.99088,7.67447 -0.0821,0 0.10318,-0.44521 0.41186,-0.98961 0.30868,-0.54441 4.18889,-7.3449 8.62273,-15.11174 4.43383,-7.76684 9.39748,-16.4279 11.02982,-19.24688 2.58097,-4.45721 2.97048,-5.30109 2.98948,-6.47351 0.0142,-0.87549 -0.19129,-1.71601 -0.58601,-2.39727 -0.3343,-0.57701 -1.17312,-1.4052 -1.86449,-1.84072 -1.00468,-0.63288 -1.56433,-0.79219 -2.78587,-0.79219 -1.31446,0 -1.78604,0.15791 -3.37189,1.12809 -1.01419,0.62045 -2.0465,1.19739 -2.29392,1.28209 -0.3996,0.13673 -0.44903,-1.70092 -0.44803,-16.43724 10e-4,-10.94609 0.10884,-16.93667 0.31729,-17.60616 0.17378,-0.55811 0.73911,-1.40513 1.25625,-1.88257 0.51717,-0.47744 3.4046,-2.23 6.41615,-3.89433 3.01152,-1.66432 5.90137,-3.22242 6.42235,-3.46233 0.52095,-0.2399 1.33574,-0.43614 1.81022,-0.43614 z"
         style="fill:#d9bc7b;fill-opacity:1;stroke:none;stroke-width:0.462;stroke-linecap:round;stroke-linejoin:round;stroke-opacity:1"
         id="path14" /><path
         d="m 579.30412,-847.14147 c -0.0779,-0.0233 -0.16697,0.0288 -0.26872,0.0884 -0.44765,0.26202 -12.13476,6.84486 -25.97154,14.62857 -13.83678,7.78373 -27.91645,15.68983 -31.28801,17.56895 -3.37157,1.87911 -6.13499,3.4916 -6.14123,3.58325 -0.006,0.0917 0.60287,0.30469 1.35392,0.47335 0.75107,0.16865 2.16407,0.66607 3.13986,1.10536 0.97578,0.43929 3.85749,1.93389 6.40375,3.32125 2.54627,1.38737 11.95508,6.59403 20.90828,11.57035 8.95322,4.97632 19.80821,11.00901 24.12204,13.4059 4.31382,2.39687 7.94306,4.36813 8.06514,4.38061 0.12209,0.0125 0.22221,-15.84841 0.22221,-35.24591 0,-30.85965 -4.2e-4,-34.717 -0.5457,-34.88004 z"
         style="fill-opacity:0;stroke:none;stroke-width:0.462;stroke-linecap:round;stroke-linejoin:round;stroke-opacity:1"
         id="path12" /><path
         d="m 590.07607,-847.20452 c -0.0901,0 -0.1633,15.73797 -0.1633,34.97358 0,19.23563 0.0572,34.97409 0.12713,34.97409 0.0699,0 2.35815,-1.25024 5.08496,-2.77812 2.90711,-1.62891 5.6195,-2.94932 6.55774,-3.19257 0.88003,-0.22816 2.49757,-0.4202 3.59461,-0.42633 1.11876,-0.006 2.65876,0.18585 3.50728,0.43718 0.83204,0.24647 2.28835,0.89502 3.23598,1.44125 0.94766,0.54625 2.25987,1.53706 2.9161,2.20194 0.65625,0.66488 1.56367,1.88378 2.01641,2.70836 0.45274,0.82457 1.01809,2.33247 1.25626,3.35122 0.35998,1.53966 0.41868,4.77699 0.34881,19.18125 -0.0832,17.16457 -0.0898,17.33861 -0.72088,18.38441 -0.35043,0.5807 -0.95015,1.31627 -1.33274,1.63453 -0.3826,0.31825 -1.46088,0.8909 -2.39623,1.27279 -1.70061,0.69434 -1.70103,0.69426 1.62832,3.10317 1.83114,1.32492 4.1924,3.03993 5.24671,3.81062 1.05432,0.77069 2.03756,1.36532 2.1854,1.32136 0.14781,-0.0439 2.846,-4.58851 5.9955,-10.09861 3.14949,-5.51011 5.72856,-10.15404 5.73143,-10.31978 0.003,-0.16572 -0.331,-0.37619 -0.74207,-0.46819 -0.41107,-0.0919 -1.27817,-0.59488 -1.9265,-1.11724 -0.85921,-0.69226 -1.30763,-1.34503 -1.65416,-2.40812 -0.42494,-1.3036 -0.45944,-3.73253 -0.32608,-22.86579 0.12323,-17.68033 0.22397,-21.63625 0.58032,-22.72626 0.2373,-0.72587 0.73503,-1.85458 1.10588,-2.50786 0.37082,-0.65329 1.13659,-1.7539 1.7017,-2.44585 0.56513,-0.69195 1.7804,-1.76736 2.70061,-2.39003 0.9202,-0.62269 4.28191,-2.56736 7.47035,-4.3217 3.18844,-1.75436 6.24505,-3.39647 6.79235,-3.64887 0.54728,-0.25239 1.65094,-0.65773 2.45256,-0.90072 1.4575,-0.44183 1.45737,-0.44182 -0.42891,-1.52342 -1.03747,-0.5949 -7.94634,-4.44124 -15.35307,-8.54729 -7.40675,-4.10604 -16.06378,-8.90355 -19.2381,-10.66136 -3.17432,-1.75783 -10.72574,-5.95268 -16.78089,-9.32191 -6.05516,-3.36921 -11.08349,-6.12573 -11.17348,-6.12573 z"
         style="fill-opacity:0;stroke:none;stroke-width:0.462;stroke-linecap:round;stroke-linejoin:round;stroke-opacity:1"
         id="path11" /><path
         d="m 555.14642,-779.1048 c -0.0911,0 0.14872,0.44572 0.5333,0.99012 0.38459,0.54441 4.59696,7.86205 9.36119,16.26154 8.29051,14.61645 8.65674,15.32445 8.52971,16.49719 -0.073,0.67393 -0.37732,1.68458 -0.67644,2.24585 -0.29912,0.56128 -1.06519,1.35683 -1.70223,1.76837 -0.63705,0.41156 -1.76077,0.82914 -2.497,0.92759 -1.16855,0.15628 -1.59765,0.0602 -3.37912,-0.75499 -2.04069,-0.93374 -2.04082,-0.93377 -2.03916,17.05684 10e-4,11.43031 0.11179,18.34494 0.30386,18.96163 0.16627,0.53386 0.73159,1.54217 1.25626,2.24069 0.52466,0.69851 1.58322,1.68437 2.35231,2.19108 0.76907,0.50671 3.83232,2.30846 6.80733,4.00389 2.97499,1.69543 5.5091,3.09341 5.63118,3.10679 0.12209,0.0134 0.21242,-16.27775 0.20051,-36.20296 -0.0216,-36.22764 -0.0219,-36.22773 -2.14612,-37.16362 -1.1683,-0.51472 -6.67919,-3.4546 -12.2468,-6.53293 -5.56761,-3.07834 -10.19755,-5.59708 -10.28878,-5.59708 z"
         style="fill:#6badc9;fill-opacity:1;stroke:none;stroke-width:0.462;stroke-linecap:round;stroke-linejoin:round;stroke-opacity:1"
         id="path9" /><path
         d="m 513.34277,-801.72254 c -0.31479,0.0237 -0.62831,0.1221 -1.05781,0.30386 -0.63283,0.26781 -1.24454,0.80131 -1.52704,1.33222 -0.42468,0.79812 -0.46337,4.23169 -0.39274,34.7555 0.0778,33.58604 0.0835,33.87764 0.68419,34.79374 0.48622,0.74158 1.97516,1.64384 7.54734,4.57233 6.44956,3.38963 7.02579,3.63849 8.12561,3.51348 0.86613,-0.0985 1.44164,-0.38567 2.1456,-1.07073 0.9621,-0.93624 0.96222,-0.93613 0.96222,-16.88683 0,-15.9507 -2.4e-4,-15.95097 -4.20026,-18.01234 -2.31,-1.13375 -4.59308,-2.35656 -5.0736,-2.71714 -0.48051,-0.36059 -1.11813,-1.13568 -1.41696,-1.72238 -0.3029,-0.5947 -0.5462,-1.68355 -0.54984,-2.46083 -0.003,-0.76683 0.17671,-1.78472 0.40049,-2.26239 0.2238,-0.47764 1.38891,-1.6488 2.58951,-2.60243 1.20058,-0.95364 6.34533,-4.9097 11.43238,-8.79119 5.08706,-3.88151 9.24381,-7.13149 9.23767,-7.22179 -0.005,-0.0903 -1.97068,-1.24673 -4.36562,-2.57038 -2.39494,-1.32366 -8.41665,-4.68253 -13.38161,-7.46415 -4.96497,-2.78161 -9.50744,-5.18656 -10.09448,-5.34437 -0.43427,-0.11675 -0.75026,-0.16788 -1.06505,-0.14418 z"
         style="fill:#6badc9;fill-opacity:1;stroke:none;stroke-width:0.462;stroke-linecap:round;stroke-linejoin:round;stroke-opacity:1"
         id="path8" /><path
         d="m 605.20952,-774.0896 c -0.97632,0 -1.65845,0.2472 -3.16519,1.1467 -1.05637,0.63066 -3.91855,2.25099 -6.36033,3.60081 -2.44179,1.3498 -4.73935,2.61844 -5.10563,2.81895 -0.66595,0.36455 -0.6656,0.36451 -0.6656,37.31194 0,20.32108 0.0537,36.9471 0.11938,36.9471 0.0659,0 2.49663,-1.32183 5.40173,-2.93781 2.90511,-1.61598 10.54257,-5.84925 16.97261,-9.40718 6.43004,-3.55793 11.75647,-6.52084 11.83649,-6.58409 0.08,-0.0632 -0.0527,-0.21685 -0.29559,-0.34158 -0.24282,-0.12472 -5.83588,-4.24374 -12.4287,-9.15293 -9.79342,-7.29246 -12.1089,-9.14105 -12.65297,-10.10326 -0.36627,-0.64776 -0.66496,-1.59838 -0.66405,-2.11202 8.9e-4,-0.51365 0.14138,-1.38226 0.31213,-1.93063 0.17076,-0.54837 0.69724,-1.39003 1.16995,-1.87017 0.47272,-0.48014 2.4301,-1.62523 4.34961,-2.54455 1.9195,-0.91932 3.71059,-1.83823 3.98064,-2.04225 0.44623,-0.33711 0.49127,-1.6746 0.48989,-14.66525 -8.1e-4,-7.86178 -0.10663,-14.88473 -0.23461,-15.6068 -0.16533,-0.9328 -0.46149,-1.48849 -1.02371,-1.91978 -0.55431,-0.42523 -1.16417,-0.6072 -2.03605,-0.6072 z"
         style="fill:#d9bc7b;fill-opacity:1;stroke:none;stroke-width:0.462;stroke-linecap:round;stroke-linejoin:round;stroke-opacity:1"
         id="path7" /></g></g></svg>
